<mxfile host="app.diagrams.net" modified="2024-10-23T17:46:16.200Z" agent="Mozilla/5.0 (Windows NT 10.0; Win64; x64) AppleWebKit/537.36 (KHTML, like Gecko) Chrome/130.0.0.0 Safari/537.36" etag="iAsmyL_-67cxnAKUowfo" version="24.2.3" type="device">
  <diagram name="Page-1" id="nOFPAi2D-Z3mDtKWCB6z">
    <mxGraphModel dx="738" dy="724" grid="1" gridSize="10" guides="1" tooltips="1" connect="1" arrows="1" fold="1" page="1" pageScale="1" pageWidth="850" pageHeight="1100" math="0" shadow="0">
      <root>
        <mxCell id="0" />
        <mxCell id="1" parent="0" />
        <mxCell id="esC_kjBJJRb_vxRUR6S1-10" value="" style="edgeStyle=orthogonalEdgeStyle;rounded=0;orthogonalLoop=1;jettySize=auto;html=1;" edge="1" parent="1" source="esC_kjBJJRb_vxRUR6S1-1" target="esC_kjBJJRb_vxRUR6S1-4">
          <mxGeometry relative="1" as="geometry" />
        </mxCell>
        <mxCell id="esC_kjBJJRb_vxRUR6S1-1" value="Pacemaker built and deployed (start)" style="rounded=1;whiteSpace=wrap;html=1;" vertex="1" parent="1">
          <mxGeometry x="360" y="60" width="120" height="60" as="geometry" />
        </mxCell>
        <mxCell id="esC_kjBJJRb_vxRUR6S1-2" value="What number&amp;nbsp;&lt;div&gt;is inputted?&lt;/div&gt;" style="rhombus;whiteSpace=wrap;html=1;" vertex="1" parent="1">
          <mxGeometry x="350" y="500" width="140" height="80" as="geometry" />
        </mxCell>
        <mxCell id="esC_kjBJJRb_vxRUR6S1-15" value="" style="edgeStyle=orthogonalEdgeStyle;rounded=0;orthogonalLoop=1;jettySize=auto;html=1;" edge="1" parent="1" source="esC_kjBJJRb_vxRUR6S1-3" target="esC_kjBJJRb_vxRUR6S1-13">
          <mxGeometry relative="1" as="geometry" />
        </mxCell>
        <mxCell id="esC_kjBJJRb_vxRUR6S1-3" value="Read int data inputs:&lt;div&gt;Lower rate limit, upper rate limit: atrial amplitude, atrial pulse width, ventricular amplitude, ventricular&amp;nbsp;&lt;/div&gt;&lt;div&gt;pulse width, VRP and ARP.&lt;/div&gt;" style="rounded=0;whiteSpace=wrap;html=1;" vertex="1" parent="1">
          <mxGeometry x="307.5" y="260" width="225" height="90" as="geometry" />
        </mxCell>
        <mxCell id="esC_kjBJJRb_vxRUR6S1-9" value="" style="edgeStyle=orthogonalEdgeStyle;rounded=0;orthogonalLoop=1;jettySize=auto;html=1;" edge="1" parent="1" source="esC_kjBJJRb_vxRUR6S1-4">
          <mxGeometry relative="1" as="geometry">
            <mxPoint x="420" y="260" as="targetPoint" />
          </mxGeometry>
        </mxCell>
        <mxCell id="esC_kjBJJRb_vxRUR6S1-4" value="User inputs programmable parameters" style="shape=parallelogram;perimeter=parallelogramPerimeter;whiteSpace=wrap;html=1;fixedSize=1;" vertex="1" parent="1">
          <mxGeometry x="360" y="160" width="120" height="60" as="geometry" />
        </mxCell>
        <mxCell id="esC_kjBJJRb_vxRUR6S1-12" value="" style="edgeStyle=orthogonalEdgeStyle;rounded=0;orthogonalLoop=1;jettySize=auto;html=1;" edge="1" parent="1" source="esC_kjBJJRb_vxRUR6S1-13" target="esC_kjBJJRb_vxRUR6S1-2">
          <mxGeometry relative="1" as="geometry" />
        </mxCell>
        <mxCell id="esC_kjBJJRb_vxRUR6S1-14" value="" style="edgeStyle=orthogonalEdgeStyle;rounded=0;orthogonalLoop=1;jettySize=auto;html=1;" edge="1" parent="1" target="esC_kjBJJRb_vxRUR6S1-13">
          <mxGeometry relative="1" as="geometry">
            <mxPoint x="420" y="360" as="sourcePoint" />
            <mxPoint x="420" y="530" as="targetPoint" />
          </mxGeometry>
        </mxCell>
        <mxCell id="esC_kjBJJRb_vxRUR6S1-13" value="User inputs an integer&amp;nbsp;&lt;div&gt;1-4 to select the&amp;nbsp;&lt;/div&gt;&lt;div&gt;pacemaker mode.&lt;/div&gt;" style="shape=parallelogram;perimeter=parallelogramPerimeter;whiteSpace=wrap;html=1;fixedSize=1;" vertex="1" parent="1">
          <mxGeometry x="340" y="390" width="160" height="70" as="geometry" />
        </mxCell>
        <mxCell id="esC_kjBJJRb_vxRUR6S1-16" value="" style="rounded=0;whiteSpace=wrap;html=1;" vertex="1" parent="1">
          <mxGeometry x="150" y="510" width="120" height="60" as="geometry" />
        </mxCell>
      </root>
    </mxGraphModel>
  </diagram>
</mxfile>
